<mxfile host="app.diagrams.net" modified="2024-02-04T02:46:59.144Z" agent="Mozilla/5.0 (Windows NT 10.0; Win64; x64) AppleWebKit/537.36 (KHTML, like Gecko) Chrome/121.0.0.0 Safari/537.36 Edg/121.0.0.0" etag="6j31y-YtUHyYjJxQs3Pv" version="23.0.2" type="device">
  <diagram name="Page-1" id="b5b7bab2-c9e2-2cf4-8b2a-24fd1a2a6d21">
    <mxGraphModel dx="588" dy="727" grid="1" gridSize="10" guides="1" tooltips="1" connect="1" arrows="1" fold="1" page="1" pageScale="1" pageWidth="827" pageHeight="1169" background="none" math="0" shadow="0">
      <root>
        <mxCell id="0" />
        <mxCell id="1" parent="0" />
        <mxCell id="v125EIHH3aPj6OBMatx8-11" value="" style="group" parent="1" vertex="1" connectable="0">
          <mxGeometry x="230" y="10" width="410" height="285" as="geometry" />
        </mxCell>
        <mxCell id="v125EIHH3aPj6OBMatx8-12" value="" style="whiteSpace=wrap;html=1;fillColor=#f3f2dc;strokeColor=#d2533c;" parent="v125EIHH3aPj6OBMatx8-11" vertex="1">
          <mxGeometry y="35.62500000000001" width="410" height="249.375" as="geometry" />
        </mxCell>
        <mxCell id="v125EIHH3aPj6OBMatx8-13" value="&lt;b&gt;Capa de presentaciÃ³n&lt;/b&gt;" style="whiteSpace=wrap;html=1;fillColor=#f3f2dc;strokeColor=#db816b;align=right;" parent="v125EIHH3aPj6OBMatx8-11" vertex="1">
          <mxGeometry x="190.35586956521738" width="219.64413043478257" height="35.62500000000001" as="geometry" />
        </mxCell>
        <mxCell id="v125EIHH3aPj6OBMatx8-5" value="" style="group" parent="v125EIHH3aPj6OBMatx8-11" vertex="1" connectable="0">
          <mxGeometry x="205.18" y="60" width="190" height="88.84" as="geometry" />
        </mxCell>
        <mxCell id="v125EIHH3aPj6OBMatx8-6" value="+muestraConfirmacion()" style="whiteSpace=wrap;html=1;fillColor=#f3f2dc;strokeColor=#d2533c;align=left;" parent="v125EIHH3aPj6OBMatx8-5" vertex="1">
          <mxGeometry y="11.105" width="190.00000000000003" height="77.73499999999999" as="geometry" />
        </mxCell>
        <mxCell id="v125EIHH3aPj6OBMatx8-7" value="&lt;b&gt;VistaPrincipal&lt;/b&gt;" style="whiteSpace=wrap;html=1;fillColor=#f3f2dc;strokeColor=#db816b;align=right;" parent="v125EIHH3aPj6OBMatx8-5" vertex="1">
          <mxGeometry x="42.22222222222223" width="147.7777777777778" height="11.105" as="geometry" />
        </mxCell>
        <mxCell id="v125EIHH3aPj6OBMatx8-14" value="" style="group" parent="v125EIHH3aPj6OBMatx8-11" vertex="1" connectable="0">
          <mxGeometry x="10" y="60" width="190.1" height="90" as="geometry" />
        </mxCell>
        <mxCell id="v125EIHH3aPj6OBMatx8-15" value="&lt;div style=&quot;&quot;&gt;&lt;span style=&quot;background-color: initial;&quot;&gt;+muestraInicio()&lt;/span&gt;&lt;/div&gt;" style="whiteSpace=wrap;html=1;fillColor=#f3f2dc;strokeColor=#d2533c;align=left;" parent="v125EIHH3aPj6OBMatx8-14" vertex="1">
          <mxGeometry y="11.25" width="190.10000000000005" height="78.75000000000001" as="geometry" />
        </mxCell>
        <mxCell id="v125EIHH3aPj6OBMatx8-16" value="&lt;b&gt;VistaCerrarSesion&lt;/b&gt;" style="whiteSpace=wrap;html=1;fillColor=#f3f2dc;strokeColor=#db816b;align=right;" parent="v125EIHH3aPj6OBMatx8-14" vertex="1">
          <mxGeometry x="42.244444444444454" width="147.85555555555558" height="11.25" as="geometry" />
        </mxCell>
        <mxCell id="v125EIHH3aPj6OBMatx8-17" value="" style="group" parent="v125EIHH3aPj6OBMatx8-11" vertex="1" connectable="0">
          <mxGeometry x="10" y="160" width="190" height="91.16" as="geometry" />
        </mxCell>
        <mxCell id="v125EIHH3aPj6OBMatx8-18" value="+cerrarSesion(usuario)" style="whiteSpace=wrap;html=1;fillColor=#f3f2dc;strokeColor=#d2533c;align=left;" parent="v125EIHH3aPj6OBMatx8-17" vertex="1">
          <mxGeometry y="11.395" width="190.00000000000003" height="79.765" as="geometry" />
        </mxCell>
        <mxCell id="v125EIHH3aPj6OBMatx8-19" value="&lt;b&gt;ControlCerrarSesion&lt;/b&gt;" style="whiteSpace=wrap;html=1;fillColor=#f3f2dc;strokeColor=#db816b;align=right;" parent="v125EIHH3aPj6OBMatx8-17" vertex="1">
          <mxGeometry x="42.22222222222222" width="147.77777777777777" height="11.395" as="geometry" />
        </mxCell>
        <mxCell id="v125EIHH3aPj6OBMatx8-8" value="" style="group" parent="v125EIHH3aPj6OBMatx8-11" vertex="1" connectable="0">
          <mxGeometry x="205.18" y="160" width="190" height="90" as="geometry" />
        </mxCell>
        <mxCell id="v125EIHH3aPj6OBMatx8-9" value="+cerrarSesion()" style="whiteSpace=wrap;html=1;fillColor=#f3f2dc;strokeColor=#d2533c;align=left;" parent="v125EIHH3aPj6OBMatx8-8" vertex="1">
          <mxGeometry y="11.25" width="190.00000000000003" height="78.74999999999999" as="geometry" />
        </mxCell>
        <mxCell id="v125EIHH3aPj6OBMatx8-10" value="&lt;b&gt;ControlPrincipal&lt;/b&gt;" style="whiteSpace=wrap;html=1;fillColor=#f3f2dc;strokeColor=#db816b;align=right;" parent="v125EIHH3aPj6OBMatx8-8" vertex="1">
          <mxGeometry x="42.22222222222223" width="147.7777777777778" height="11.25" as="geometry" />
        </mxCell>
        <mxCell id="v125EIHH3aPj6OBMatx8-20" value="" style="group" parent="1" vertex="1" connectable="0">
          <mxGeometry x="230" y="310" width="410" height="185" as="geometry" />
        </mxCell>
        <mxCell id="v125EIHH3aPj6OBMatx8-21" value="" style="whiteSpace=wrap;html=1;fillColor=#f3f2dc;strokeColor=#d2533c;" parent="v125EIHH3aPj6OBMatx8-20" vertex="1">
          <mxGeometry y="23.125" width="410" height="161.875" as="geometry" />
        </mxCell>
        <mxCell id="v125EIHH3aPj6OBMatx8-22" value="&lt;b&gt;Capa de negocio&lt;br&gt;&lt;/b&gt;" style="whiteSpace=wrap;html=1;fillColor=#f3f2dc;strokeColor=#db816b;align=right;" parent="v125EIHH3aPj6OBMatx8-20" vertex="1">
          <mxGeometry x="190.35586956521738" width="219.6441304347826" height="23.125" as="geometry" />
        </mxCell>
        <mxCell id="v125EIHH3aPj6OBMatx8-23" value="" style="group" parent="v125EIHH3aPj6OBMatx8-20" vertex="1" connectable="0">
          <mxGeometry x="10" y="32.65" width="190" height="137.35" as="geometry" />
        </mxCell>
        <mxCell id="v125EIHH3aPj6OBMatx8-24" value="+cerrarSesion(usuario)" style="whiteSpace=wrap;html=1;fillColor=#f3f2dc;strokeColor=#d2533c;" parent="v125EIHH3aPj6OBMatx8-23" vertex="1">
          <mxGeometry y="17.16875" width="190" height="120.18125000000003" as="geometry" />
        </mxCell>
        <mxCell id="v125EIHH3aPj6OBMatx8-25" value="&lt;b&gt;ServicioUsuario&lt;/b&gt;" style="whiteSpace=wrap;html=1;fillColor=#f3f2dc;strokeColor=#db816b;align=right;" parent="v125EIHH3aPj6OBMatx8-23" vertex="1">
          <mxGeometry x="42.22222222222222" width="147.77777777777777" height="17.16875" as="geometry" />
        </mxCell>
        <mxCell id="v125EIHH3aPj6OBMatx8-26" value="" style="group" parent="v125EIHH3aPj6OBMatx8-20" vertex="1" connectable="0">
          <mxGeometry x="210" y="32.65" width="190.36" height="137.35" as="geometry" />
        </mxCell>
        <mxCell id="v125EIHH3aPj6OBMatx8-27" value="" style="whiteSpace=wrap;html=1;fillColor=#f3f2dc;strokeColor=#d2533c;" parent="v125EIHH3aPj6OBMatx8-26" vertex="1">
          <mxGeometry y="17.16875" width="190.36" height="120.18125000000003" as="geometry" />
        </mxCell>
        <mxCell id="v125EIHH3aPj6OBMatx8-28" value="&lt;b&gt;EntidadesNegocio&lt;/b&gt;" style="whiteSpace=wrap;html=1;fillColor=#f3f2dc;strokeColor=#db816b;align=right;" parent="v125EIHH3aPj6OBMatx8-26" vertex="1">
          <mxGeometry x="42.30222222222222" width="148.05777777777777" height="17.16875" as="geometry" />
        </mxCell>
        <mxCell id="v125EIHH3aPj6OBMatx8-29" value="" style="group" parent="v125EIHH3aPj6OBMatx8-26" vertex="1" connectable="0">
          <mxGeometry x="35.18000000000001" y="46.410000000000025" width="110" height="50" as="geometry" />
        </mxCell>
        <mxCell id="v125EIHH3aPj6OBMatx8-31" value="&lt;b&gt;&lt;font style=&quot;font-size: 20px;&quot;&gt;Usuario&lt;/font&gt;&lt;/b&gt;" style="whiteSpace=wrap;html=1;fillColor=#f3f2dc;strokeColor=#db816b;align=center;" parent="v125EIHH3aPj6OBMatx8-29" vertex="1">
          <mxGeometry width="110.00000000000001" height="50" as="geometry" />
        </mxCell>
        <mxCell id="v125EIHH3aPj6OBMatx8-33" value="" style="endArrow=classic;html=1;rounded=0;strokeColor=#d2533c;strokeWidth=1.5;dashed=1;" parent="v125EIHH3aPj6OBMatx8-20" edge="1">
          <mxGeometry width="50" height="50" relative="1" as="geometry">
            <mxPoint x="90" y="-47.35000000000002" as="sourcePoint" />
            <mxPoint x="90" y="32.64999999999998" as="targetPoint" />
          </mxGeometry>
        </mxCell>
        <mxCell id="v125EIHH3aPj6OBMatx8-34" value="" style="group" parent="1" vertex="1" connectable="0">
          <mxGeometry x="230" y="510" width="410" height="167.35" as="geometry" />
        </mxCell>
        <mxCell id="v125EIHH3aPj6OBMatx8-35" value="" style="whiteSpace=wrap;html=1;fillColor=#f3f2dc;strokeColor=#d2533c;" parent="v125EIHH3aPj6OBMatx8-34" vertex="1">
          <mxGeometry y="20" width="410" height="140" as="geometry" />
        </mxCell>
        <mxCell id="v125EIHH3aPj6OBMatx8-36" value="&lt;b&gt;Capa de datos&lt;/b&gt;" style="whiteSpace=wrap;html=1;fillColor=#f3f2dc;strokeColor=#db816b;align=right;" parent="v125EIHH3aPj6OBMatx8-34" vertex="1">
          <mxGeometry x="190.35586956521738" width="219.6441304347826" height="20" as="geometry" />
        </mxCell>
        <mxCell id="v125EIHH3aPj6OBMatx8-37" value="" style="group" parent="v125EIHH3aPj6OBMatx8-34" vertex="1" connectable="0">
          <mxGeometry x="150" y="30" width="250" height="120" as="geometry" />
        </mxCell>
        <mxCell id="v125EIHH3aPj6OBMatx8-38" value="&lt;div style=&quot;text-align: left;&quot;&gt;&lt;span style=&quot;background-color: initial;&quot;&gt;+crea(Usuario u): Usuario&lt;/span&gt;&lt;/div&gt;&lt;div style=&quot;text-align: left;&quot;&gt;&lt;span style=&quot;background-color: initial;&quot;&gt;+recupera(nombre: String): Usuario&lt;/span&gt;&lt;/div&gt;&lt;div style=&quot;text-align: left;&quot;&gt;&lt;span style=&quot;background-color: initial;&quot;&gt;+actualiza(Usuario): boolean&lt;/span&gt;&lt;/div&gt;&lt;div style=&quot;text-align: left;&quot;&gt;&lt;span style=&quot;background-color: initial;&quot;&gt;+borra(Usuario): boolean&lt;/span&gt;&lt;/div&gt;" style="whiteSpace=wrap;html=1;fillColor=#f3f2dc;strokeColor=#d2533c;" parent="v125EIHH3aPj6OBMatx8-37" vertex="1">
          <mxGeometry y="15" width="250.00000000000003" height="105.00000000000003" as="geometry" />
        </mxCell>
        <mxCell id="v125EIHH3aPj6OBMatx8-39" value="&lt;b&gt;UsuarioRepository&lt;/b&gt;" style="whiteSpace=wrap;html=1;fillColor=#f3f2dc;strokeColor=#db816b;align=right;" parent="v125EIHH3aPj6OBMatx8-37" vertex="1">
          <mxGeometry x="55.55555555555556" width="194.44444444444446" height="15" as="geometry" />
        </mxCell>
        <mxCell id="v125EIHH3aPj6OBMatx8-40" value="" style="endArrow=classic;html=1;rounded=0;strokeColor=#d2533c;strokeWidth=1.5;dashed=1;" parent="v125EIHH3aPj6OBMatx8-34" edge="1">
          <mxGeometry width="50" height="50" relative="1" as="geometry">
            <mxPoint x="160" y="-30" as="sourcePoint" />
            <mxPoint x="160" y="50" as="targetPoint" />
          </mxGeometry>
        </mxCell>
      </root>
    </mxGraphModel>
  </diagram>
</mxfile>
